solid GiD
  facet normal -3.08702971e-14  4.83563472e-14               1  
    outer loop
      vertex               0          0.0015           0.024
      vertex -0.000260472266   0.00147721163           0.024
      vertex -7.20270769e-05   0.00123877601           0.024
    endloop
  endfacet
  facet normal -6.61373767e-15 -2.46828049e-14               1  
    outer loop
      vertex -0.000513030216  -0.00140953893           0.024
      vertex -0.000260472268  -0.00147721163           0.024
      vertex -0.000316470596  -0.00118108434           0.024
    endloop
  endfacet
  facet normal  2.19853455e-14  3.13983272e-14               1  
    outer loop
      vertex  0.000964181416   0.00114906666           0.024
      vertex  0.000750000002    0.0012990381           0.024
      vertex  0.000701339719   0.00100161692           0.024
    endloop
  endfacet
  facet normal  -5.3225527e-14 -2.19830347e-14               1  
    outer loop
      vertex  -0.00147721163  0.000260472269           0.024
      vertex         -0.0015   2.6265743e-12           0.024
      vertex  -0.00121809556  0.000106569554           0.024
    endloop
  endfacet
  facet normal  5.28115241e-14 -2.46264181e-14               1  
    outer loop
      vertex   0.00129903811        -0.00075           0.024
      vertex   0.00140953893 -0.000513030215           0.024
      vertex   0.00112104975 -0.000568164732           0.024
    endloop
  endfacet
  facet normal  4.86543666e-15  1.38999703e-14               1  
    outer loop
      vertex -0.000964181414   0.00114906667           0.024
      vertex  -0.00114906666  0.000964181416           0.024
      vertex -0.000864613743  0.000864613745           0.024
    endloop
  endfacet
  facet normal -3.58679249e-14 -2.51149914e-14               1  
    outer loop
      vertex  -0.00129903811        -0.00075           0.024
      vertex  -0.00114906666 -0.000964181414           0.024
      vertex -0.000974482267 -0.000660943893           0.024
    endloop
  endfacet
  facet normal  1.61990763e-14 -3.47390313e-14               1  
    outer loop
      vertex  0.000513030213  -0.00140953893           0.024
      vertex  0.000749999998  -0.00129903811           0.024
      vertex  0.000516755837  -0.00110818647           0.024
    endloop
  endfacet
  facet normal   4.3892823e-14 -1.57134162e-14               1  
    outer loop
      vertex   0.00147721163  0.000260472265           0.024
      vertex   0.00140953893  0.000513030214           0.024
      vertex   0.00118108434  0.000316470594           0.024
    endloop
  endfacet
  facet normal  -5.3996921e-15  1.15796771e-14               1  
    outer loop
      vertex -0.000513030214   0.00140953893           0.024
      vertex -0.000749999999   0.00129903811           0.024
      vertex -0.000516755838   0.00110818647           0.024
    endloop
  endfacet
  facet normal -9.82490001e-15 -3.99472615e-14               1  
    outer loop
      vertex -1.73831392e-12         -0.0015           0.024
      vertex  0.000260472264  -0.00147721163           0.024
      vertex  4.61593526e-05  -0.00116395001           0.024
    endloop
  endfacet
  facet normal  -1.9595069e-15  4.39550655e-14               1  
    outer loop
      vertex  0.000513030218   0.00140953893           0.024
      vertex  0.000260472269   0.00147721163           0.024
      vertex  0.000295186832   0.00108410082           0.024
    endloop
  endfacet
  facet normal -5.21020032e-14 -2.76979209e-14               1  
    outer loop
      vertex  -0.00147721163 -0.000260472264           0.024
      vertex  -0.00140953893 -0.000513030212           0.024
      vertex  -0.00118108434 -0.000316470592           0.024
    endloop
  endfacet
  facet normal  1.79357285e-14 -1.48890054e-14               1  
    outer loop
      vertex   0.00147721163 -0.000260472267           0.024
      vertex          0.0015  -8.6915639e-13           0.024
      vertex   0.00121809556 -0.000106569553           0.024
    endloop
  endfacet
  facet normal -4.26804881e-14  3.45431218e-14               1  
    outer loop
      vertex   -0.0012990381  0.000750000002           0.024
      vertex  -0.00140953893  0.000513030217           0.024
      vertex  -0.00112104975  0.000568164732           0.024
    endloop
  endfacet
  facet normal -2.91905697e-14 -1.85544029e-14               1  
    outer loop
      vertex -0.000964181415  -0.00114906666           0.024
      vertex -0.000750000001  -0.00129903811           0.024
      vertex -0.000701339718  -0.00100161692           0.024
    endloop
  endfacet
  facet normal  2.71036008e-14 -2.71036009e-14               1  
    outer loop
      vertex  0.000964181412  -0.00114906667           0.024
      vertex   0.00114906666 -0.000964181417           0.024
      vertex  0.000864613742 -0.000864613745           0.024
    endloop
  endfacet
  facet normal  3.93222486e-14  1.13350979e-14               1  
    outer loop
      vertex   0.00129903811  0.000749999998           0.024
      vertex   0.00114906667  0.000964181413           0.024
      vertex   0.00105256997  0.000686775194           0.024
    endloop
  endfacet
  facet normal   3.8253537e-14  1.10399918e-14               1  
    outer loop
      vertex -0.000260472266   0.00147721163           0.024
      vertex -0.000513030214   0.00140953893           0.024
      vertex -0.000516755838   0.00110818647           0.024
    endloop
  endfacet
  facet normal  2.27532306e-14 -4.44221478e-14               1  
    outer loop
      vertex -0.000260472268  -0.00147721163           0.024
      vertex -1.73831392e-12         -0.0015           0.024
      vertex  4.61593526e-05  -0.00116395001           0.024
    endloop
  endfacet
  facet normal  1.51618539e-14  3.25147004e-14               1  
    outer loop
      vertex  0.000750000002    0.0012990381           0.024
      vertex  0.000513030218   0.00140953893           0.024
      vertex  0.000701339719   0.00100161692           0.024
    endloop
  endfacet
  facet normal -6.44399533e-14  7.68206721e-15               1  
    outer loop
      vertex         -0.0015   2.6265743e-12           0.024
      vertex  -0.00147721163 -0.000260472264           0.024
      vertex  -0.00121809556  0.000106569554           0.024
    endloop
  endfacet
  facet normal  2.31023716e-14 -6.19026181e-15               1  
    outer loop
      vertex   0.00140953893 -0.000513030215           0.024
      vertex   0.00147721163 -0.000260472267           0.024
      vertex   0.00121809556 -0.000106569553           0.024
    endloop
  endfacet
  facet normal -7.43971046e-14  3.49750295e-15               1  
    outer loop
      vertex  -0.00114906666  0.000964181416           0.024
      vertex   -0.0012990381  0.000750000002           0.024
      vertex  -0.00112104975  0.000568164732           0.024
    endloop
  endfacet
  facet normal -2.58301978e-14 -3.08940604e-14               1  
    outer loop
      vertex  -0.00114906666 -0.000964181414           0.024
      vertex -0.000701339718  -0.00100161692           0.024
      vertex -0.000974482267 -0.000660943893           0.024
    endloop
  endfacet
  facet normal  2.93065677e-14 -1.87200653e-14               1  
    outer loop
      vertex  0.000749999998  -0.00129903811           0.024
      vertex  0.000964181412  -0.00114906667           0.024
      vertex  0.000516755837  -0.00110818647           0.024
    endloop
  endfacet
  facet normal  2.76547571e-14  5.68182747e-14               1  
    outer loop
      vertex   0.00140953893  0.000513030214           0.024
      vertex   0.00129903811  0.000749999998           0.024
      vertex   0.00105256997  0.000686775194           0.024
    endloop
  endfacet
  facet normal -6.85920988e-15  9.79596693e-15               1  
    outer loop
      vertex -0.000749999999   0.00129903811           0.024
      vertex -0.000964181414   0.00114906667           0.024
      vertex -0.000516755838   0.00110818647           0.024
    endloop
  endfacet
  facet normal -4.49749665e-15 -3.44831593e-14               1  
    outer loop
      vertex  0.000260472264  -0.00147721163           0.024
      vertex  0.000513030213  -0.00140953893           0.024
      vertex  0.000516755837  -0.00110818647           0.024
    endloop
  endfacet
  facet normal  1.64099156e-14   3.5319813e-14               1  
    outer loop
      vertex  0.000260472269   0.00147721163           0.024
      vertex               0          0.0015           0.024
      vertex -7.20270769e-05   0.00123877601           0.024
    endloop
  endfacet
  facet normal -4.14704643e-14 -4.69711197e-15               1  
    outer loop
      vertex  -0.00140953893 -0.000513030212           0.024
      vertex  -0.00129903811        -0.00075           0.024
      vertex -0.000974482267 -0.000660943893           0.024
    endloop
  endfacet
  facet normal  7.03901365e-15  1.39356664e-14               1  
    outer loop
      vertex          0.0015  -8.6915639e-13           0.024
      vertex   0.00147721163  0.000260472265           0.024
      vertex   0.00121809556 -0.000106569553           0.024
    endloop
  endfacet
  facet normal -2.76145437e-14   2.1136526e-14               1  
    outer loop
      vertex  -0.00140953893  0.000513030217           0.024
      vertex  -0.00147721163  0.000260472269           0.024
      vertex  -0.00121809556  0.000106569554           0.024
    endloop
  endfacet
  facet normal -1.01079026e-14 -2.16764669e-14               1  
    outer loop
      vertex -0.000750000001  -0.00129903811           0.024
      vertex -0.000513030216  -0.00140953893           0.024
      vertex -0.000701339718  -0.00100161692           0.024
    endloop
  endfacet
  facet normal   4.5454627e-14 -3.18276725e-14               1  
    outer loop
      vertex   0.00114906666 -0.000964181417           0.024
      vertex   0.00129903811        -0.00075           0.024
      vertex   0.00112104975 -0.000568164732           0.024
    endloop
  endfacet
  facet normal  2.53681647e-14  2.53681646e-14               1  
    outer loop
      vertex   0.00114906667  0.000964181413           0.024
      vertex  0.000964181416   0.00114906666           0.024
      vertex  0.000701339719   0.00100161692           0.024
    endloop
  endfacet
  facet normal -2.36712658e-14   5.4046029e-14               1  
    outer loop
      vertex -7.20270769e-05   0.00123877601           0.024
      vertex -0.000260472266   0.00147721163           0.024
      vertex -0.000516755838   0.00110818647           0.024
    endloop
  endfacet
  facet normal  1.09740961e-14  2.25469059e-14               1  
    outer loop
      vertex   0.00118108434  0.000316470594           0.024
      vertex   0.00140953893  0.000513030214           0.024
      vertex   0.00105256997  0.000686775194           0.024
    endloop
  endfacet
  facet normal  2.49420576e-14 -3.32788713e-14               1  
    outer loop
      vertex  0.000864613742 -0.000864613745           0.024
      vertex   0.00114906666 -0.000964181417           0.024
      vertex   0.00112104975 -0.000568164732           0.024
    endloop
  endfacet
  facet normal  4.71256443e-14  5.12472351e-15               1  
    outer loop
      vertex   0.00112104975 -0.000568164732           0.024
      vertex   0.00140953893 -0.000513030215           0.024
      vertex   0.00121809556 -0.000106569553           0.024
    endloop
  endfacet
  facet normal -5.00867733e-14 -3.00401544e-14               1  
    outer loop
      vertex  -0.00118108434 -0.000316470592           0.024
      vertex  -0.00140953893 -0.000513030212           0.024
      vertex -0.000974482267 -0.000660943893           0.024
    endloop
  endfacet
  facet normal -3.17774072e-15 -3.53997141e-14               1  
    outer loop
      vertex  4.61593526e-05  -0.00116395001           0.024
      vertex  0.000260472264  -0.00147721163           0.024
      vertex  0.000516755837  -0.00110818647           0.024
    endloop
  endfacet
  facet normal -3.90857115e-14  1.57335946e-14               1  
    outer loop
      vertex  -0.00112104975  0.000568164732           0.024
      vertex  -0.00140953893  0.000513030217           0.024
      vertex  -0.00121809556  0.000106569554           0.024
    endloop
  endfacet
  facet normal  1.09736715e-15 -2.32246179e-14               1  
    outer loop
      vertex -0.000316470596  -0.00118108434           0.024
      vertex -0.000260472268  -0.00147721163           0.024
      vertex  4.61593526e-05  -0.00116395001           0.024
    endloop
  endfacet
  facet normal  2.46223706e-14  1.64485007e-14               1  
    outer loop
      vertex   0.00105256997  0.000686775194           0.024
      vertex   0.00114906667  0.000964181413           0.024
      vertex  0.000701339719   0.00100161692           0.024
    endloop
  endfacet
  facet normal  3.14445109e-15  8.98332046e-15               1  
    outer loop
      vertex -0.000864613743  0.000864613745           0.024
      vertex  -0.00114906666  0.000964181416           0.024
      vertex  -0.00112104975  0.000568164732           0.024
    endloop
  endfacet
  facet normal  9.49237375e-15  4.49663504e-14               1  
    outer loop
      vertex  0.000295186832   0.00108410082           0.024
      vertex  0.000260472269   0.00147721163           0.024
      vertex -7.20270769e-05   0.00123877601           0.024
    endloop
  endfacet
  facet normal  4.44987259e-14 -1.25093137e-14               1  
    outer loop
      vertex   0.00147721163  0.000260472265           0.024
      vertex   0.00118108434  0.000316470594           0.024
      vertex   0.00121809556 -0.000106569553           0.024
    endloop
  endfacet
  facet normal  2.85880596e-14 -2.65839926e-14               1  
    outer loop
      vertex  0.000964181412  -0.00114906667           0.024
      vertex  0.000864613742 -0.000864613745           0.024
      vertex  0.000516755837  -0.00110818647           0.024
    endloop
  endfacet
  facet normal -4.76526445e-14 -4.16906616e-15               1  
    outer loop
      vertex  -0.00147721163 -0.000260472264           0.024
      vertex  -0.00118108434 -0.000316470592           0.024
      vertex  -0.00121809556  0.000106569554           0.024
    endloop
  endfacet
  facet normal -1.01079026e-14 -2.16764669e-14               1  
    outer loop
      vertex -0.000513030216  -0.00140953893           0.024
      vertex -0.000316470596  -0.00118108434           0.024
      vertex -0.000701339718  -0.00100161692           0.024
    endloop
  endfacet
  facet normal -6.85920988e-15  9.79596693e-15               1  
    outer loop
      vertex -0.000964181414   0.00114906667           0.024
      vertex -0.000864613743  0.000864613745           0.024
      vertex -0.000516755838   0.00110818647           0.024
    endloop
  endfacet
  facet normal  1.51438021e-14  3.25063671e-14               1  
    outer loop
      vertex  0.000513030218   0.00140953893           0.024
      vertex  0.000295186832   0.00108410082           0.024
      vertex  0.000701339719   0.00100161692           0.024
    endloop
  endfacet
  facet normal -2.53681646e-14 -2.53681646e-14               1  
    outer loop
      vertex -0.000964181415  -0.00114906666           0.024
      vertex -0.000701339718  -0.00100161692           0.024
      vertex  -0.00114906666 -0.000964181414           0.024
    endloop
  endfacet
  facet normal -8.57143954e-15  2.62286511e-15               1  
    outer loop
      vertex -7.20270769e-05   0.00123877601           0.024
      vertex -0.000516755838   0.00110818647           0.024
      vertex -0.000210593459  0.000785945489           0.024
    endloop
  endfacet
  facet normal  1.35768573e-14  4.12637805e-15               1  
    outer loop
      vertex   0.00105256997  0.000686775194           0.024
      vertex  0.000701339719   0.00100161692           0.024
      vertex  0.000575352031  0.000575352029           0.024
    endloop
  endfacet
  facet normal  9.61786446e-15  5.29650575e-15               1  
    outer loop
      vertex  0.000701339719   0.00100161692           0.024
      vertex  0.000295186832   0.00108410082           0.024
      vertex  0.000575352031  0.000575352029           0.024
    endloop
  endfacet
  facet normal  1.62421997e-14  9.74145772e-15               1  
    outer loop
      vertex  -0.00118108434 -0.000316470592           0.024
      vertex -0.000974482267 -0.000660943893           0.024
      vertex -0.000737436039 -0.000343872072           0.024
    endloop
  endfacet
  facet normal  9.24048146e-15   1.0472126e-15               1  
    outer loop
      vertex  0.000516755837  -0.00110818647           0.024
      vertex  0.000864613742 -0.000864613745           0.024
      vertex  0.000466702306 -0.000666519971           0.024
    endloop
  endfacet
  facet normal  9.27451553e-15  1.11557692e-15               1  
    outer loop
      vertex  0.000864613742 -0.000864613745           0.024
      vertex  0.000785945489 -0.000210593459           0.024
      vertex  0.000466702306 -0.000666519971           0.024
    endloop
  endfacet
  facet normal  6.55060155e-15  6.13901242e-15               1  
    outer loop
      vertex  -0.00112104975  0.000568164732           0.024
      vertex  -0.00121809556  0.000106569554           0.024
      vertex -0.000785945488   0.00021059346           0.024
    endloop
  endfacet
  facet normal -8.36929719e-15  2.56100944e-15               1  
    outer loop
      vertex  0.000295186832   0.00108410082           0.024
      vertex -7.20270769e-05   0.00123877601           0.024
      vertex -0.000210593459  0.000785945489           0.024
    endloop
  endfacet
  facet normal              -0              -0               1  
    outer loop
      vertex -0.000701339718  -0.00100161692           0.024
      vertex -0.000316470596  -0.00118108434           0.024
      vertex -0.000343872073  -0.00073743604           0.024
    endloop
  endfacet
  facet normal  9.40323158e-15  2.20017367e-14               1  
    outer loop
      vertex   0.00118108434  0.000316470594           0.024
      vertex   0.00105256997  0.000686775194           0.024
      vertex  0.000575352031  0.000575352029           0.024
    endloop
  endfacet
  facet normal  6.49394862e-15  6.08591912e-15               1  
    outer loop
      vertex -0.000864613743  0.000864613745           0.024
      vertex  -0.00112104975  0.000568164732           0.024
      vertex -0.000785945488   0.00021059346           0.024
    endloop
  endfacet
  facet normal  4.72603926e-15 -6.39488416e-15               1  
    outer loop
      vertex -0.000974482267 -0.000660943893           0.024
      vertex -0.000701339718  -0.00100161692           0.024
      vertex -0.000343872073  -0.00073743604           0.024
    endloop
  endfacet
  facet normal -7.27475328e-15 -8.24438997e-16               1  
    outer loop
      vertex  4.61593526e-05  -0.00116395001           0.024
      vertex  0.000516755837  -0.00110818647           0.024
      vertex  0.000466702306 -0.000666519971           0.024
    endloop
  endfacet
  facet normal  7.86275184e-15  6.87901647e-16               1  
    outer loop
      vertex  -0.00121809556  0.000106569554           0.024
      vertex  -0.00118108434 -0.000316470592           0.024
      vertex -0.000785945488   0.00021059346           0.024
    endloop
  endfacet
  facet normal  4.64491389e-15  1.40558758e-14               1  
    outer loop
      vertex   0.00112104975 -0.000568164732           0.024
      vertex   0.00121809556 -0.000106569553           0.024
      vertex  0.000785945489 -0.000210593459           0.024
    endloop
  endfacet
  facet normal               0              -0               1  
    outer loop
      vertex -0.000316470596  -0.00118108434           0.024
      vertex  4.61593526e-05  -0.00116395001           0.024
      vertex -0.000343872073  -0.00073743604           0.024
    endloop
  endfacet
  facet normal  1.17295913e-14 -1.53762415e-14               1  
    outer loop
      vertex   0.00121809556 -0.000106569553           0.024
      vertex   0.00118108434  0.000316470594           0.024
      vertex  0.000785945489 -0.000210593459           0.024
    endloop
  endfacet
  facet normal -4.52711622e-15  6.46539201e-15               1  
    outer loop
      vertex -0.000516755838   0.00110818647           0.024
      vertex -0.000864613743  0.000864613745           0.024
      vertex -0.000210593459  0.000785945489           0.024
    endloop
  endfacet
  facet normal  1.53369294e-14 -4.91547409e-15               1  
    outer loop
      vertex  -0.00118108434 -0.000316470592           0.024
      vertex -0.000737436039 -0.000343872072           0.024
      vertex -0.000785945488   0.00021059346           0.024
    endloop
  endfacet
  facet normal  7.47811833e-15  1.62935771e-14               1  
    outer loop
      vertex -0.000737436039 -0.000343872072           0.024
      vertex -0.000974482267 -0.000660943893           0.024
      vertex -0.000343872073  -0.00073743604           0.024
    endloop
  endfacet
  facet normal -1.18778393e-14 -1.42871543e-15               1  
    outer loop
      vertex   0.00112104975 -0.000568164732           0.024
      vertex  0.000785945489 -0.000210593459           0.024
      vertex  0.000864613742 -0.000864613745           0.024
    endloop
  endfacet
  facet normal -3.44764479e-15  -6.5589114e-15               1  
    outer loop
      vertex -0.000785945488   0.00021059346           0.024
      vertex -0.000737436039 -0.000343872072           0.024
      vertex -0.000330325806 -2.88997618e-05           0.024
    endloop
  endfacet
  facet normal -8.65008087e-15  1.65377995e-16               1  
    outer loop
      vertex -0.000330325806 -2.88997618e-05           0.024
      vertex -0.000737436039 -0.000343872072           0.024
      vertex -0.000343872073  -0.00073743604           0.024
    endloop
  endfacet
  facet normal              -0               0               1  
    outer loop
      vertex -0.000785945488   0.00021059346           0.024
      vertex -0.000330325806 -2.88997618e-05           0.024
      vertex -0.000210593459  0.000785945489           0.024
    endloop
  endfacet
  facet normal -6.26962065e-15  1.19996983e-14               1  
    outer loop
      vertex  0.000466702306 -0.000666519971           0.024
      vertex  0.000785945489 -0.000210593459           0.024
      vertex  0.000271620658 -0.000190190832           0.024
    endloop
  endfacet
  facet normal -6.99509838e-15 -6.28869175e-15               1  
    outer loop
      vertex  0.000271620658 -0.000190190832           0.024
      vertex  0.000785945489 -0.000210593459           0.024
      vertex  0.000575352031  0.000575352029           0.024
    endloop
  endfacet
  facet normal -5.36257091e-15  1.23711825e-14               1  
    outer loop
      vertex  0.000466702306 -0.000666519971           0.024
      vertex  0.000271620658 -0.000190190832           0.024
      vertex -0.000343872073  -0.00073743604           0.024
    endloop
  endfacet
  facet normal -5.17848916e-15 -2.85176587e-15               1  
    outer loop
      vertex  0.000575352031  0.000575352029           0.024
      vertex  0.000295186832   0.00108410082           0.024
      vertex -0.000210593459  0.000785945489           0.024
    endloop
  endfacet
  facet normal -4.73522753e-15  4.73522754e-15               1  
    outer loop
      vertex -0.000864613743  0.000864613745           0.024
      vertex -0.000785945488   0.00021059346           0.024
      vertex -0.000210593459  0.000785945489           0.024
    endloop
  endfacet
  facet normal  -3.9631594e-15  -3.6241643e-15               1  
    outer loop
      vertex -0.000343872073  -0.00073743604           0.024
      vertex  4.61593526e-05  -0.00116395001           0.024
      vertex  0.000466702306 -0.000666519971           0.024
    endloop
  endfacet
  facet normal -2.13063036e-15 -4.98526148e-15               1  
    outer loop
      vertex  0.000785945489 -0.000210593459           0.024
      vertex   0.00118108434  0.000316470594           0.024
      vertex  0.000575352031  0.000575352029           0.024
    endloop
  endfacet
  facet normal  5.73433744e-15 -1.09632874e-16               1  
    outer loop
      vertex -0.000330325806 -2.88997618e-05           0.024
      vertex -0.000343872073  -0.00073743604           0.024
      vertex  0.000271620658 -0.000190190832           0.024
    endloop
  endfacet
  facet normal   4.3407442e-15 -5.31059363e-15               1  
    outer loop
      vertex -0.000330325806 -2.88997618e-05           0.024
      vertex  0.000271620658 -0.000190190832           0.024
      vertex  8.27193606e-05  0.000308712855           0.024
    endloop
  endfacet
  facet normal -2.72106607e-15 -7.98442659e-15               1  
    outer loop
      vertex  8.27193606e-05  0.000308712855           0.024
      vertex  0.000271620658 -0.000190190832           0.024
      vertex  0.000575352031  0.000575352029           0.024
    endloop
  endfacet
  facet normal               0              -0               1  
    outer loop
      vertex -0.000330325806 -2.88997618e-05           0.024
      vertex  8.27193606e-05  0.000308712855           0.024
      vertex -0.000210593459  0.000785945489           0.024
    endloop
  endfacet
  facet normal -5.28466438e-15 -3.24801722e-15               1  
    outer loop
      vertex  8.27193606e-05  0.000308712855           0.024
      vertex  0.000575352031  0.000575352029           0.024
      vertex -0.000210593459  0.000785945489           0.024
    endloop
  endfacet
endsolid GiD
